REM DIRINDEX 1\2,1\3
REM DIRNAME cjc102,folder01,folder02
TITLE ""
FILE "CD1Track36.mp3" MP3
  TRACK 01 AUDIO
    TITLE "0:"
    INDEX 01 00:00:00
  TRACK 02 AUDIO
    TITLE "3:cjc102_1721"
    INDEX 01 00:00:27
  TRACK 03 AUDIO
    TITLE "0:"
    INDEX 01 00:01:22
  TRACK 04 AUDIO
    TITLE "2:cjc102_1722"
    INDEX 01 00:01:58
  TRACK 05 AUDIO
    TITLE "0:"
    INDEX 01 00:02:73
  TRACK 06 AUDIO
    TITLE "3:cjc102_1723"
    INDEX 01 00:03:29
  TRACK 07 AUDIO
    TITLE "0:"
    INDEX 01 00:04:15
  TRACK 08 AUDIO
    TITLE "2:cjc102_1724"
    INDEX 01 00:04:50
  TRACK 09 AUDIO
    TITLE "0:"
    INDEX 01 00:05:54
  TRACK 10 AUDIO
    TITLE "3:cjc102_1725"
    INDEX 01 00:06:67
  TRACK 11 AUDIO
    TITLE "0:"
    INDEX 01 00:07:66
  TRACK 12 AUDIO
    TITLE "2:cjc102_1726"
    INDEX 01 00:07:72
  TRACK 13 AUDIO
    TITLE "0:"
    INDEX 01 00:09:04
  TRACK 14 AUDIO
    TITLE "3:cjc102_1727"
    INDEX 01 00:09:69
  TRACK 15 AUDIO
    TITLE "0:"
    INDEX 01 00:10:66
  TRACK 16 AUDIO
    TITLE "2:cjc102_1728"
    INDEX 01 00:11:07
  TRACK 17 AUDIO
    TITLE "0:"
    INDEX 01 00:12:20
  TRACK 18 AUDIO
    TITLE "3:cjc102_1729"
    INDEX 01 00:13:16
  TRACK 19 AUDIO
    TITLE "0:"
    INDEX 01 00:13:73
  TRACK 20 AUDIO
    TITLE "2:cjc102_1730"
    INDEX 01 00:14:45
  TRACK 21 AUDIO
    TITLE "0:"
    INDEX 01 00:15:52
  TRACK 22 AUDIO
    TITLE "3:cjc102_1731"
    INDEX 01 00:17:02
  TRACK 23 AUDIO
    TITLE "0:"
    INDEX 01 00:18:01
  TRACK 24 AUDIO
    TITLE "2:cjc102_1732"
    INDEX 01 00:18:17
  TRACK 25 AUDIO
    TITLE "0:"
    INDEX 01 00:19:32
  TRACK 26 AUDIO
    TITLE "3:cjc102_1733"
    INDEX 01 00:20:41
  TRACK 27 AUDIO
    TITLE "0:"
    INDEX 01 00:21:37
  TRACK 28 AUDIO
    TITLE "2:cjc102_1734"
    INDEX 01 00:21:55
  TRACK 29 AUDIO
    TITLE "0:"
    INDEX 01 00:22:64
  TRACK 30 AUDIO
    TITLE "3:cjc102_1735"
    INDEX 01 00:24:12
  TRACK 31 AUDIO
    TITLE "0:"
    INDEX 01 00:25:09
  TRACK 32 AUDIO
    TITLE "2:cjc102_1736"
    INDEX 01 00:25:27
  TRACK 33 AUDIO
    TITLE "0:"
    INDEX 01 00:26:40
  TRACK 34 AUDIO
    TITLE "3:cjc102_1737"
    INDEX 01 00:27:51
  TRACK 35 AUDIO
    TITLE "0:"
    INDEX 01 00:28:45
  TRACK 36 AUDIO
    TITLE "2:cjc102_1738"
    INDEX 01 00:29:11
  TRACK 37 AUDIO
    TITLE "0:"
    INDEX 01 00:30:20
  TRACK 38 AUDIO
    TITLE "3:cjc102_1739"
    INDEX 01 00:31:18
  TRACK 39 AUDIO
    TITLE "0:"
    INDEX 01 00:32:11
  TRACK 40 AUDIO
    TITLE "2:cjc102_1740"
    INDEX 01 00:32:60
  TRACK 41 AUDIO
    TITLE "0:"
    INDEX 01 00:33:56
  TRACK 42 AUDIO
    TITLE "3:cjc102_1741"
    INDEX 01 00:35:27
  TRACK 43 AUDIO
    TITLE "0:"
    INDEX 01 00:36:44
  TRACK 44 AUDIO
    TITLE "2:cjc102_1742"
    INDEX 01 00:36:54
  TRACK 45 AUDIO
    TITLE "0:"
    INDEX 01 00:37:57
  TRACK 46 AUDIO
    TITLE "3:cjc102_1743"
    INDEX 01 00:38:41
  TRACK 47 AUDIO
    TITLE "0:"
    INDEX 01 00:39:54
  TRACK 48 AUDIO
    TITLE "2:cjc102_1744"
    INDEX 01 00:40:34
  TRACK 49 AUDIO
    TITLE "0:"
    INDEX 01 00:41:49
  TRACK 50 AUDIO
    TITLE "3:cjc102_1745"
    INDEX 01 00:43:03
  TRACK 51 AUDIO
    TITLE "0:"
    INDEX 01 00:44:24
  TRACK 52 AUDIO
    TITLE "2:cjc102_1746"
    INDEX 01 00:44:34
  TRACK 53 AUDIO
    TITLE "0:"
    INDEX 01 00:45:30
  TRACK 54 AUDIO
    TITLE "3:cjc102_1747"
    INDEX 01 00:46:53
  TRACK 55 AUDIO
    TITLE "0:"
    INDEX 01 00:47:70
  TRACK 56 AUDIO
    TITLE "2:cjc102_1748"
    INDEX 01 00:48:18
  TRACK 57 AUDIO
    TITLE "0:"
    INDEX 01 00:49:21
  TRACK 58 AUDIO
    TITLE "3:cjc102_1749"
    INDEX 01 00:50:37
  TRACK 59 AUDIO
    TITLE "0:"
    INDEX 01 00:51:46
  TRACK 60 AUDIO
    TITLE "2:cjc102_1750"
    INDEX 01 00:51:60
  TRACK 61 AUDIO
    TITLE "0:"
    INDEX 01 00:52:63
  TRACK 62 AUDIO
    TITLE "2:cjc102_1751"
    INDEX 01 00:53:27
  TRACK 63 AUDIO
    TITLE "0:"
    INDEX 01 00:54:34
  TRACK 64 AUDIO
    TITLE "3:cjc102_1752"
    INDEX 01 00:55:48
  TRACK 65 AUDIO
    TITLE "0:"
    INDEX 01 00:56:55
  TRACK 66 AUDIO
    TITLE "2:cjc102_1753"
    INDEX 01 00:56:59
  TRACK 67 AUDIO
    TITLE "0:"
    INDEX 01 00:57:62
  TRACK 68 AUDIO
    TITLE "2:cjc102_1754"
    INDEX 01 00:58:22
  TRACK 69 AUDIO
    TITLE "0:"
    INDEX 01 00:59:43
  TRACK 70 AUDIO
    TITLE "3:cjc102_1755"
    INDEX 01 01:00:60
  TRACK 71 AUDIO
    TITLE "0:"
    INDEX 01 01:02:05
  TRACK 72 AUDIO
    TITLE "2:cjc102_1756"
    INDEX 01 01:02:06
  TRACK 73 AUDIO
    TITLE "0:"
    INDEX 01 01:03:18
  TRACK 74 AUDIO
    TITLE "2:cjc102_1757"
    INDEX 01 01:03:65
  TRACK 75 AUDIO
    TITLE "0:"
    INDEX 01 01:05:07
  TRACK 76 AUDIO
    TITLE "3:cjc102_1758"
    INDEX 01 01:05:73
  TRACK 77 AUDIO
    TITLE "0:"
    INDEX 01 01:07:23
  TRACK 78 AUDIO
    TITLE "2:cjc102_1759"
    INDEX 01 01:07:27
  TRACK 79 AUDIO
    TITLE "0:"
    INDEX 01 01:08:35
  TRACK 80 AUDIO
    TITLE "2:cjc102_1760"
    INDEX 01 01:08:70
  TRACK 81 AUDIO
    TITLE "0:"
    INDEX 01 01:10:16
  TRACK 82 AUDIO
    TITLE "3:cjc102_1761"
    INDEX 01 01:11:17
  TRACK 83 AUDIO
    TITLE "0:"
    INDEX 01 01:12:30
  TRACK 84 AUDIO
    TITLE "2:cjc102_1762"
    INDEX 01 01:12:36
  TRACK 85 AUDIO
    TITLE "0:"
    INDEX 01 01:13:38
  TRACK 86 AUDIO
    TITLE "2:cjc102_1763"
    INDEX 01 01:14:17
  TRACK 87 AUDIO
    TITLE "0:"
    INDEX 01 01:15:17
  TRACK 88 AUDIO
    TITLE "3:cjc102_1764"
    INDEX 01 01:15:64
  TRACK 89 AUDIO
    TITLE "0:"
    INDEX 01 01:17:00
  TRACK 90 AUDIO
    TITLE "2:cjc102_1765"
    INDEX 01 01:17:16
  TRACK 91 AUDIO
    TITLE "0:"
    INDEX 01 01:18:23
  TRACK 92 AUDIO
    TITLE "2:cjc102_1766"
    INDEX 01 01:18:62
  TRACK 93 AUDIO
    TITLE "0:"
    INDEX 01 01:20:02
